<mxfile host="app.diagrams.net" agent="Mozilla/5.0 (Windows NT 10.0; Win64; x64) AppleWebKit/537.36 (KHTML, like Gecko) Chrome/140.0.0.0 Safari/537.36 Edg/140.0.0.0" version="28.2.3">
  <diagram name="Page-1" id="UjrdqVZSy6HgyASzCU8v">
    <mxGraphModel dx="1418" dy="786" grid="1" gridSize="10" guides="1" tooltips="1" connect="1" arrows="1" fold="1" page="1" pageScale="1" pageWidth="850" pageHeight="1100" math="0" shadow="0">
      <root>
        <mxCell id="0" />
        <mxCell id="1" parent="0" />
        <mxCell id="ytbEYyM1-JPKGnNeVmck-44" value="" style="rounded=0;whiteSpace=wrap;html=1;" vertex="1" parent="1">
          <mxGeometry x="240" y="240" width="80" height="80" as="geometry" />
        </mxCell>
        <mxCell id="ytbEYyM1-JPKGnNeVmck-45" value="" style="rounded=0;whiteSpace=wrap;html=1;" vertex="1" parent="1">
          <mxGeometry x="330" y="240" width="80" height="80" as="geometry" />
        </mxCell>
        <mxCell id="ytbEYyM1-JPKGnNeVmck-46" value="" style="rounded=0;whiteSpace=wrap;html=1;" vertex="1" parent="1">
          <mxGeometry x="420" y="240" width="80" height="80" as="geometry" />
        </mxCell>
        <mxCell id="ytbEYyM1-JPKGnNeVmck-47" value="" style="rounded=0;whiteSpace=wrap;html=1;" vertex="1" parent="1">
          <mxGeometry x="510" y="240" width="80" height="80" as="geometry" />
        </mxCell>
        <mxCell id="ytbEYyM1-JPKGnNeVmck-48" value="" style="rounded=0;whiteSpace=wrap;html=1;" vertex="1" parent="1">
          <mxGeometry x="600" y="240" width="80" height="80" as="geometry" />
        </mxCell>
        <mxCell id="ytbEYyM1-JPKGnNeVmck-49" value="" style="rounded=0;whiteSpace=wrap;html=1;" vertex="1" parent="1">
          <mxGeometry x="240" y="330" width="80" height="80" as="geometry" />
        </mxCell>
        <mxCell id="ytbEYyM1-JPKGnNeVmck-50" value="" style="rounded=0;whiteSpace=wrap;html=1;" vertex="1" parent="1">
          <mxGeometry x="330" y="330" width="80" height="80" as="geometry" />
        </mxCell>
        <mxCell id="ytbEYyM1-JPKGnNeVmck-51" value="" style="rounded=0;whiteSpace=wrap;html=1;" vertex="1" parent="1">
          <mxGeometry x="420" y="330" width="80" height="80" as="geometry" />
        </mxCell>
        <mxCell id="ytbEYyM1-JPKGnNeVmck-52" value="" style="rounded=0;whiteSpace=wrap;html=1;" vertex="1" parent="1">
          <mxGeometry x="510" y="330" width="80" height="80" as="geometry" />
        </mxCell>
        <mxCell id="ytbEYyM1-JPKGnNeVmck-53" value="" style="rounded=0;whiteSpace=wrap;html=1;" vertex="1" parent="1">
          <mxGeometry x="600" y="330" width="80" height="80" as="geometry" />
        </mxCell>
        <mxCell id="ytbEYyM1-JPKGnNeVmck-54" value="" style="rounded=0;whiteSpace=wrap;html=1;" vertex="1" parent="1">
          <mxGeometry x="240" y="420" width="80" height="80" as="geometry" />
        </mxCell>
        <mxCell id="ytbEYyM1-JPKGnNeVmck-55" value="" style="rounded=0;whiteSpace=wrap;html=1;" vertex="1" parent="1">
          <mxGeometry x="330" y="420" width="80" height="80" as="geometry" />
        </mxCell>
        <mxCell id="ytbEYyM1-JPKGnNeVmck-56" value="" style="rounded=0;whiteSpace=wrap;html=1;" vertex="1" parent="1">
          <mxGeometry x="420" y="420" width="80" height="80" as="geometry" />
        </mxCell>
        <mxCell id="ytbEYyM1-JPKGnNeVmck-57" value="" style="rounded=0;whiteSpace=wrap;html=1;" vertex="1" parent="1">
          <mxGeometry x="510" y="420" width="80" height="80" as="geometry" />
        </mxCell>
        <mxCell id="ytbEYyM1-JPKGnNeVmck-58" value="" style="rounded=0;whiteSpace=wrap;html=1;" vertex="1" parent="1">
          <mxGeometry x="600" y="420" width="80" height="80" as="geometry" />
        </mxCell>
        <mxCell id="ytbEYyM1-JPKGnNeVmck-59" value="" style="rounded=0;whiteSpace=wrap;html=1;" vertex="1" parent="1">
          <mxGeometry x="240" y="510" width="80" height="80" as="geometry" />
        </mxCell>
        <mxCell id="ytbEYyM1-JPKGnNeVmck-60" value="" style="rounded=0;whiteSpace=wrap;html=1;" vertex="1" parent="1">
          <mxGeometry x="330" y="510" width="80" height="80" as="geometry" />
        </mxCell>
        <mxCell id="ytbEYyM1-JPKGnNeVmck-61" value="" style="rounded=0;whiteSpace=wrap;html=1;" vertex="1" parent="1">
          <mxGeometry x="420" y="510" width="80" height="80" as="geometry" />
        </mxCell>
        <mxCell id="ytbEYyM1-JPKGnNeVmck-62" value="" style="rounded=0;whiteSpace=wrap;html=1;" vertex="1" parent="1">
          <mxGeometry x="510" y="510" width="80" height="80" as="geometry" />
        </mxCell>
        <mxCell id="ytbEYyM1-JPKGnNeVmck-63" value="" style="rounded=0;whiteSpace=wrap;html=1;" vertex="1" parent="1">
          <mxGeometry x="600" y="510" width="80" height="80" as="geometry" />
        </mxCell>
        <mxCell id="ytbEYyM1-JPKGnNeVmck-74" value="Trigger&lt;div&gt;(On Heal)&lt;/div&gt;" style="rounded=0;whiteSpace=wrap;html=1;fillColor=#d5e8d4;strokeColor=#82b366;" vertex="1" parent="1">
          <mxGeometry x="250" y="340" width="60" height="60" as="geometry" />
        </mxCell>
        <mxCell id="ytbEYyM1-JPKGnNeVmck-78" value="Trigger&lt;div&gt;(Skill 1)&lt;/div&gt;" style="rounded=0;whiteSpace=wrap;html=1;fillColor=#dae8fc;strokeColor=#6c8ebf;" vertex="1" parent="1">
          <mxGeometry x="340" y="520" width="60" height="60" as="geometry" />
        </mxCell>
        <mxCell id="ytbEYyM1-JPKGnNeVmck-81" value="Shoot a fireball" style="ellipse;whiteSpace=wrap;html=1;aspect=fixed;fillColor=#fff2cc;strokeColor=#d6b656;" vertex="1" parent="1">
          <mxGeometry x="340" y="430" width="60" height="60" as="geometry" />
        </mxCell>
        <mxCell id="ytbEYyM1-JPKGnNeVmck-82" value="Buff&amp;nbsp;&lt;span style=&quot;background-color: transparent; color: light-dark(rgb(0, 0, 0), rgb(255, 255, 255));&quot;&gt;ATK&lt;/span&gt;" style="ellipse;whiteSpace=wrap;html=1;aspect=fixed;fillColor=#fff2cc;strokeColor=#d6b656;" vertex="1" parent="1">
          <mxGeometry x="340" y="340" width="60" height="60" as="geometry" />
        </mxCell>
        <mxCell id="ytbEYyM1-JPKGnNeVmck-83" style="edgeStyle=orthogonalEdgeStyle;shape=flexArrow;rounded=0;orthogonalLoop=1;jettySize=auto;html=1;exitX=0.5;exitY=0;exitDx=0;exitDy=0;fillColor=#dae8fc;strokeColor=#6c8ebf;opacity=50;" edge="1" parent="1" source="ytbEYyM1-JPKGnNeVmck-78">
          <mxGeometry relative="1" as="geometry">
            <mxPoint x="370" y="400" as="targetPoint" />
          </mxGeometry>
        </mxCell>
        <mxCell id="ytbEYyM1-JPKGnNeVmck-87" value="Heal player" style="ellipse;whiteSpace=wrap;html=1;aspect=fixed;fillColor=#fff2cc;strokeColor=#d6b656;" vertex="1" parent="1">
          <mxGeometry x="430" y="340" width="60" height="60" as="geometry" />
        </mxCell>
        <mxCell id="ytbEYyM1-JPKGnNeVmck-75" style="edgeStyle=orthogonalEdgeStyle;shape=flexArrow;rounded=0;orthogonalLoop=1;jettySize=auto;html=1;exitX=1;exitY=0.5;exitDx=0;exitDy=0;fillColor=#d5e8d4;strokeColor=#82b366;opacity=50;" edge="1" parent="1" source="ytbEYyM1-JPKGnNeVmck-74">
          <mxGeometry relative="1" as="geometry">
            <mxPoint x="430" y="370" as="targetPoint" />
          </mxGeometry>
        </mxCell>
        <mxCell id="ytbEYyM1-JPKGnNeVmck-94" style="edgeStyle=orthogonalEdgeStyle;shape=flexArrow;rounded=0;orthogonalLoop=1;jettySize=auto;html=1;exitX=0.5;exitY=0;exitDx=0;exitDy=0;entryX=0;entryY=0.5;entryDx=0;entryDy=0;fillColor=#f8cecc;strokeColor=#b85450;opacity=50;" edge="1" parent="1" source="ytbEYyM1-JPKGnNeVmck-91" target="ytbEYyM1-JPKGnNeVmck-93">
          <mxGeometry relative="1" as="geometry" />
        </mxCell>
        <mxCell id="ytbEYyM1-JPKGnNeVmck-91" value="Trigger&lt;div&gt;(Skill 2)&lt;/div&gt;" style="rounded=0;whiteSpace=wrap;html=1;fillColor=#f8cecc;strokeColor=#b85450;" vertex="1" parent="1">
          <mxGeometry x="250" y="520" width="60" height="60" as="geometry" />
        </mxCell>
        <mxCell id="ytbEYyM1-JPKGnNeVmck-93" value="Buff DEF" style="ellipse;whiteSpace=wrap;html=1;aspect=fixed;fillColor=#fff2cc;strokeColor=#d6b656;" vertex="1" parent="1">
          <mxGeometry x="610" y="430" width="60" height="60" as="geometry" />
        </mxCell>
      </root>
    </mxGraphModel>
  </diagram>
</mxfile>
